<svg id="visual" viewBox="0 0 960 540" width="960" height="540" xmlns="http://www.w3.org/2000/svg" xmlns:xlink="http://www.w3.org/1999/xlink" version="1.1"><path d="M0 77L48 77L48 66L96 66L96 93L144 93L144 82L192 82L192 55L240 55L240 87L288 87L288 104L336 104L336 109L384 109L384 87L432 87L432 55L480 55L480 60L528 60L528 44L576 44L576 60L624 60L624 93L672 93L672 104L720 104L720 104L768 104L768 82L816 82L816 50L864 50L864 66L912 66L912 55L960 55L960 60L960 0L960 0L912 0L912 0L864 0L864 0L816 0L816 0L768 0L768 0L720 0L720 0L672 0L672 0L624 0L624 0L576 0L576 0L528 0L528 0L480 0L480 0L432 0L432 0L384 0L384 0L336 0L336 0L288 0L288 0L240 0L240 0L192 0L192 0L144 0L144 0L96 0L96 0L48 0L48 0L0 0Z" fill="#1a3450"></path><path d="M0 206L48 206L48 260L96 260L96 282L144 282L144 239L192 239L192 239L240 239L240 260L288 260L288 228L336 228L336 195L384 195L384 293L432 293L432 276L480 276L480 201L528 201L528 239L576 239L576 158L624 158L624 293L672 293L672 266L720 266L720 249L768 249L768 255L816 255L816 233L864 233L864 163L912 163L912 174L960 174L960 174L960 58L960 53L912 53L912 64L864 64L864 48L816 48L816 80L768 80L768 102L720 102L720 102L672 102L672 91L624 91L624 58L576 58L576 42L528 42L528 58L480 58L480 53L432 53L432 85L384 85L384 107L336 107L336 102L288 102L288 85L240 85L240 53L192 53L192 80L144 80L144 91L96 91L96 64L48 64L48 75L0 75Z" fill="#22597c"></path><path d="M0 293L48 293L48 341L96 341L96 347L144 347L144 320L192 320L192 379L240 379L240 336L288 336L288 303L336 303L336 314L384 314L384 347L432 347L432 341L480 341L480 260L528 260L528 303L576 303L576 233L624 233L624 363L672 363L672 320L720 320L720 363L768 363L768 357L816 357L816 363L864 363L864 266L912 266L912 309L960 309L960 266L960 172L960 172L912 172L912 161L864 161L864 231L816 231L816 253L768 253L768 247L720 247L720 264L672 264L672 291L624 291L624 156L576 156L576 237L528 237L528 199L480 199L480 274L432 274L432 291L384 291L384 193L336 193L336 226L288 226L288 258L240 258L240 237L192 237L192 237L144 237L144 280L96 280L96 258L48 258L48 204L0 204Z" fill="#2281a9"></path><path d="M0 352L48 352L48 395L96 395L96 411L144 411L144 379L192 379L192 422L240 422L240 379L288 379L288 363L336 363L336 368L384 368L384 411L432 411L432 401L480 401L480 341L528 341L528 390L576 390L576 303L624 303L624 422L672 422L672 379L720 379L720 428L768 428L768 406L816 406L816 411L864 411L864 352L912 352L912 352L960 352L960 303L960 264L960 307L912 307L912 264L864 264L864 361L816 361L816 355L768 355L768 361L720 361L720 318L672 318L672 361L624 361L624 231L576 231L576 301L528 301L528 258L480 258L480 339L432 339L432 345L384 345L384 312L336 312L336 301L288 301L288 334L240 334L240 377L192 377L192 318L144 318L144 345L96 345L96 339L48 339L48 291L0 291Z" fill="#16acd4"></path><path d="M0 541L48 541L48 541L96 541L96 541L144 541L144 541L192 541L192 541L240 541L240 541L288 541L288 541L336 541L336 541L384 541L384 541L432 541L432 541L480 541L480 541L528 541L528 541L576 541L576 541L624 541L624 541L672 541L672 541L720 541L720 541L768 541L768 541L816 541L816 541L864 541L864 541L912 541L912 541L960 541L960 541L960 301L960 350L912 350L912 350L864 350L864 409L816 409L816 404L768 404L768 426L720 426L720 377L672 377L672 420L624 420L624 301L576 301L576 388L528 388L528 339L480 339L480 399L432 399L432 409L384 409L384 366L336 366L336 361L288 361L288 377L240 377L240 420L192 420L192 377L144 377L144 409L96 409L96 393L48 393L48 350L0 350Z" fill="#01dafc"></path></svg>